:SAMPLES-PER-SECOND 24
:FULLY-SPECIFIED
:DEGREES
246
root  3.29746 37.9913 27.772 8.68896 22.4197 0.891541
RightUpLeg  -35.266 -4.67546 -2.8067
RightLeg  28.2388 -10.2232 -6.12366
RightFoot  1.15781 0.564652 -5.06408
RightToes  -2.08645e-008 3.77894e-005 6.81332e-007
Spine  2.59135 -6.36998 -6.37124
Spine1  2.68217 -9.45451 15.0591
HEad  -34.8342 -1.55801 4.03452
LeftShoulder1  8.13585 -13.9779 -40.3164
LeftArm  9.80612 -1.61139 -29.1901
LeftForeArm  143.93 -76.6066 -134.523
LeftHand  -0.498513 -2.43365 7.61562
RightShoulder  3.92995 6.56789 33.1359
RightArm  0.990872 -30.8418 29.9003
RightForeArm  86.9303 80.1181 74.5335
RightHand  -0.423032 8.61326 -3.88067
LeftUpLeg  3.3276 11.8452 12.3633
LeftLeg  28.5475 16.3688 9.91981
LeftFoot  -1.66296 2.24614 -26.2245
LeftToes  1.24767e-006 1.47042e-008 1.32732e-009
247
root  3.34312 38.0671 29.0739 7.70166 16.3412 -0.0586548
RightUpLeg  -33.6689 0.0268492 -1.45611
RightLeg  29.1245 -8.58679 -5.37595
RightFoot  -1.29469 0.43395 -5.02968
RightToes  -2.08645e-008 3.77894e-005 6.81332e-007
Spine  4.47215 -7.43403 -4.42343
Spine1  0.359188 -10.7327 17.4225
HEad  -32.6721 4.06916 0.144609
LeftShoulder1  8.10826 -13.935 -40.2752
LeftArm  10.9995 -0.939906 -30.9196
LeftForeArm  148.262 -75.7221 -138.311
LeftHand  -0.420788 -2.83277 6.17016
RightShoulder  3.90883 6.53187 33.0655
RightArm  0.304925 -30.5275 29.3903
RightForeArm  76.3837 79.4422 64.6635
RightHand  -0.819544 7.88102 -7.51462
LeftUpLeg  -2.33357 9.30311 12.0396
LeftLeg  43.686 9.4402 9.9198
LeftFoot  6.66061 2.75709 -17.5462
LeftToes  1.24767e-006 1.47042e-008 1.32732e-009
248
root  3.51525 38.2209 30.1906 6.54431 8.44354 -0.465149
RightUpLeg  -31.318 4.77647 -0.651216
RightLeg  28.7051 -5.82288 -3.68355
RightFoot  -2.66327 0.377356 -5.20027
RightToes  -2.08645e-008 3.77894e-005 6.81332e-007
Spine  7.01951 -7.78641 -2.74806
Spine1  -1.66453 -11.1576 19.3582
HEad  -30.9486 10.4926 -3.91546
LeftShoulder1  7.98018 -13.8245 -39.8563
LeftArm  11.6083 -0.224275 -32.398
LeftForeArm  149.806 -75.1626 -140.219
LeftHand  -0.404436 -2.67386 6.04503
RightShoulder  3.90996 6.52899 33.0881
RightArm  0.577629 -27.9731 27.6667
RightForeArm  70.2405 78.8514 58.9613
RightHand  -0.59568 7.49663 -5.72611
LeftUpLeg  -9.01148 9.31769 10.3793
LeftLeg  60.0146 2.73387 5.87664
LeftFoot  5.14592 1.77282 -12.3994
LeftToes  1.24767e-006 1.47042e-008 1.32732e-009
249
root  3.65203 38.6067 31.3177 5.5907 -0.441498 0.588623
RightUpLeg  -28.1322 9.6053 -1.31864
RightLeg  26.6267 -2.57274 -1.63937
RightFoot  -3.20342 0.342536 -5.11076
RightToes  -2.08645e-008 3.77894e-005 6.81332e-007
Spine  7.77076 -7.19378 -3.23827
Spine1  -1.97334 -10.8359 20.4683
HEad  -28.9322 16.2198 -7.06272
LeftShoulder1  7.77808 -13.6658 -39.1418
LeftArm  11.7032 -0.0680022 -33.235
LeftForeArm  148.993 -75.4105 -139.364
LeftHand  -0.357976 -2.74165 5.33714
RightShoulder  3.90834 6.51246 33.1364
RightArm  1.16244 -23.2841 25.947
RightForeArm  61.0035 77.5306 49.9201
RightHand  -0.800704 7.04195 -7.79529
LeftUpLeg  -17.0026 12.645 7.78334
LeftLeg  74.7119 1.16613 6.46805
LeftFoot  0.734831 1.19822 -11.3979
LeftToes  1.24767e-006 1.47042e-008 1.32732e-009
250
root  3.74978 38.9611 32.2715 4.09192 -8.99374 2.51355
RightUpLeg  -25.0721 16.1469 -3.03287
RightLeg  24.7066 -1.3656 -0.905381
RightFoot  -3.65628 0.372701 -5.90751
RightToes  -2.08645e-008 3.77894e-005 6.81332e-007
Spine  8.61782 -6.25626 -4.12417
Spine1  -2.7028 -9.89214 20.6607
HEad  -25.9381 20.6664 -9.72753
LeftShoulder1  7.63851 -13.5469 -38.6626
LeftArm  11.5968 1.20053 -32.5911
LeftForeArm  149.743 -75.3614 -139.658
LeftHand  -0.241422 -3.02779 3.56354
RightShoulder  3.86647 6.47569 32.8606
RightArm  2.98916 -17.7096 24.7624
RightForeArm  52.1883 75.5044 40.8073
RightHand  -0.755377 7.87366 -6.97429
LeftUpLeg  -27.47 16.0449 5.34098
LeftLeg  87.1597 -0.180553 6.79627
LeftFoot  -1.69257 0.847328 -9.89825
LeftToes  1.24767e-006 1.47042e-008 1.32732e-009
251
root  3.88453 39.1796 33.0383 1.23962 -16.184 5.45398
RightUpLeg  -22.4338 23.4055 -5.41983
RightLeg  24.6716 -2.2965 -1.37302
RightFoot  -4.47909 0.38418 -6.89852
RightToes  -2.08645e-008 3.77894e-005 6.81332e-007
Spine  10.6736 -5.45134 -4.61358
Spine1  -4.28458 -8.68477 19.3493
HEad  -23.1026 23.7227 -12.2368
LeftShoulder1  7.56219 -13.4699 -38.4267
LeftArm  11.7772 3.08201 -30.5817
LeftForeArm  152.9 -74.4253 -142.692
LeftHand  -0.141692 -3.23237 2.14882
RightShoulder  3.82299 6.46022 32.4838
RightArm  5.95327 -11.4969 24.115
RightForeArm  47.4937 73.8189 35.4705
RightHand  -0.706873 8.15694 -6.41393
LeftUpLeg  -39.4811 17.3574 3.37238
LeftLeg  97.2523 -0.788185 3.12004
LeftFoot  -4.21929 0.516202 -7.88179
LeftToes  1.24767e-006 1.47042e-008 1.32732e-009
